<svg xmlns="http://www.w3.org/2000/svg" width="4138.667" height="1130.667" version="1.0" viewBox="0 0 3104 848"><path d="M1417.5 109C1181 116.7 975.6 158.6 836 227.6c-50.7 25-86.1 49.3-114.5 78.6-41.6 42.6-57.3 89.1-45.4 134.5 14 53.5 71.5 109.7 157.4 153.9 218.8 112.5 634.6 152.8 980.3 94.9 226.4-37.9 393.6-112.5 452.4-201.9 36.5-55.5 32.4-112.4-12-165.6-26.8-32.1-78.1-69-136.7-98.3-115.2-57.5-301-99-498-111.2-60.4-3.7-148.5-5.2-202-3.5zm159.5 6c187.9 8.2 357.2 38.8 483.5 87.5 68.7 26.5 138.6 68.6 176 106 33.6 33.6 48.7 64.8 48.8 100.5.2 38.7-16.5 72.6-53.4 108.6-73.9 72-220.2 130.6-410.4 164.4-150.9 26.8-330.9 35.3-498 23.5C1132.7 692 961.2 653 846.4 597.1c-109.5-53.4-173.1-124.4-168.9-188.5 5.2-79.5 87.7-151.7 237-207 138.2-51.3 316.2-81.7 513-87.6 33.2-1 116.4-.4 149.5 1z"/><path d="M1411 120.6c-42.3 1.9-59.5 2.8-83 4.5-322.1 23-573.8 117-630.5 235.4-9.1 19.1-12 32-11.9 53 .2 16.7 2.2 26.8 8.6 42.8 24 59.7 102.6 117.3 219.8 160.9 114.3 42.6 263 71.7 421 82.3 55.3 3.7 67.4 4 146 4 81.1 0 96.5-.5 154-4.6 335.5-23.9 593.9-125.2 636.2-249.4 6.4-18.8 8.1-35.6 5.3-53.5-2.5-16.5-7.6-30.9-15.9-45.1-46.8-79.8-180.8-148.5-372-190.4-90-19.7-184.4-31.8-302.1-38.6-17.5-1-158.3-2-175.5-1.3zm150.5 27.5c287.6 9.9 538.1 78 636.9 173 17.2 16.5 26.8 29 35.1 45.6 17.7 35.8 14.2 71.9-10.6 108.5-7.8 11.5-31.2 35.2-45.4 45.9-56.4 42.8-141.8 79.1-250 106.3-107.6 27-230.4 43.3-365 48.6-34.8 1.4-127.3 1.4-162 0-185.8-7.3-350.6-36-477.1-83.1C821.6 555 753.2 507 729 456.5c-15.8-33.2-14-66.4 5.5-99 38.6-64.5 146.7-122.3 301.2-161 153-38.3 334.9-55 525.8-48.4z"/><path d="M1423.5 170.6c-88.1 3.2-138.3 7-206 15.4-203.6 25.5-365.6 81.3-434.1 149.5-17.4 17.4-26.8 31.4-33.3 49.8-3.6 10.1-3.6 10.3-3.6 26.7s0 16.6 3.6 26.7c7.7 21.7 21.2 40.1 44.1 59.8 18.8 16.2 42.5 31.3 71.9 46.1 109.5 54.8 277.8 92.1 472.9 104.9 50.6 3.3 75.1 4 143 4s90.7-.7 142-4c194.5-12.7 363.3-50.1 472.3-104.6 70.5-35.3 110.6-74.5 119.4-116.7 1.1-5.6 1.4-11.1 1.1-20.2-.4-11-.9-13.7-4-22.7-6.2-18-15.7-32.3-32.8-49.3-42.8-42.8-121.4-80.8-227-109.9-106.1-29.2-229.1-47-374-54.1-20.7-1.1-136.9-2.1-155.5-1.4zm-86.5 44.8c23 2.6 47.1 6.1 96 14.1 48.8 8 67.1 10.6 90 12.9 61.4 6.3 122.3 3.7 173.3-7.4 11.9-2.6 13.1-2.5 16.9.9 2.9 2.6 3.2 3.5 3.2 8.2 0 10.6-7.2 20.3-22.8 30.4-15.7 10.3-32.9 16.9-53.2 20.7-10.1 1.8-15.7 2.2-36.4 2.2-39.1.1-61.4-4-135-24.4-21.3-5.9-41.9-11.2-52.7-13.5-2-.5-2.3-.1-2.3 2.8 0 3-.9 4-11.2 11.7-23.6 17.8-45.1 37.3-58.4 53.2-7.5 9-20.4 27.6-20.4 29.5 0 1 1.6 1.2 6.8.8 3.7-.3 15.9-1 27.2-1.6 11.2-.6 20.8-1.3 21.3-1.6.5-.3.7-2.2.4-4.2-.7-6 1.2-16.2 4.2-22.8 11.2-23.8 41.1-29.7 51.2-10.1 8 15.6-3.2 39.1-22.6 47.3-4.2 1.8-6.5 3.3-6.3 4.2.2.8 3.5 3.8 7.3 6.6 4.4 3.3 7.1 6.1 7.3 7.5.4 2.8-4.8 8.2-7.8 8.2-3.8 0-13.9-6.1-21.2-12.9l-7-6.5-21.6 1.8c-29.5 2.4-53.1 5.2-54.7 6.6-.8.7-7.3 10.9-14.6 22.8-40.3 66.1-63.9 98.5-92.3 126.7-17.8 17.7-29.4 26.6-45.6 34.9-20.4 10.4-35.4 14-59.5 14-19.5.1-28.9-2-44-9.4-24-11.7-39.5-32.7-43.6-59.2-1.8-11.4-.6-30.5 2.5-41.1 6.7-22.5 20.4-41.1 39.9-54.1 24.8-16.4 47.3-18.6 51.8-4.9 1.9 5.8 0 8.4-10.3 14.5-22.6 13.2-36 30.1-38.9 49-2.8 17.8 6.5 36.5 22.1 44.2 7.9 4 13.8 5.1 26 5 13.5-.2 24-2.8 37.4-9.5 29.1-14.5 62.4-47.5 103.3-102.3 9.4-12.6 17-23.3 16.7-23.7-.6-1-8.9-.2-17.8 1.7s-17.4 5.5-26 11.1c-9.2 5.9-11.1 6.6-15.3 5.2-3.9-1.3-5.3-3.4-5.3-8.5 0-11.8 30.7-25.4 72-31.9 5.8-.9 11.5-2 12.7-2.5 1.2-.5 9.4-10.6 18.2-22.4 17.8-23.8 29.2-36.3 48.6-53.3 13.9-12.2 25.3-20.4 37.8-27.2 4.3-2.4 7.6-4.8 7.4-5.4-.8-2.5-68.1-13.7-94.7-15.8-50.8-4-97.7 7.6-122.5 30.3-26.1 23.9-26.6 58.5-.9 63.8 19.1 4 46.8-11 65.2-35.3 6.7-8.9 7.7-9.7 10.7-9.7 2.5 0 3.9.7 5.5 2.7 3.4 4.3 2.3 10.1-4.2 23.5-15.5 31.4-40.1 54.4-67.2 62.7-48.2 14.8-85.6-18.7-76.2-68.2 9.2-47.8 66-86.3 138.1-93.6 14.1-1.5 74.5-.6 91.5 1.3zm618.3 107.2c1 1-1.2 4.8-30.1 49.3-58.9 91.1-90.3 140.8-98.5 156.1-5.5 10.3-6.5 14.6-4.3 18.8 2.1 4.1 4.4 5.2 10.8 5.2 12.5 0 29.5-12.6 64.4-47.8 10.2-10.2 17.9-17.2 19-17.2 2 0 13.4 10.3 13.4 12.1 0 1.8-13.4 17.2-28 32.3-35.4 36.4-61.6 52.8-86.6 54.3-20.5 1.2-32.3-8.3-35.9-29-.3-2-1-3.7-1.5-3.7s-3.8 2.5-7.2 5.7c-17.5 15.6-36.8 24.3-54.4 24.3-23.3 0-40.4-14-46.9-38.5-1.2-4.5-1.5-9.6-1.3-20.5.2-10.2-.1-14.4-.8-14.3-.7.1-4.1 2.1-7.7 4.3-3.6 2.3-11 5.8-16.4 7.8-9 3.3-10.7 3.6-20.8 3.6-10.1.1-11.5-.1-16.7-2.7-8.1-4-16-12.8-18.7-20.9-1.1-3.5-2.3-8.7-2.7-11.6-.4-2.8-1-5.2-1.4-5.2-.8 0-17.7 25.9-42.5 65-9.2 14.6-17.6 27.3-18.7 28.2-1.8 1.6-4.4 1.8-22.8 1.8-17.2 0-21-.3-22-1.5-1.4-1.7.6-5.5 18.5-33.5 26.7-41.6 49.2-79 54.6-90.5 5.3-11.1 3.2-19.5-4.9-19.5-4.7 0-13.8 4.3-22.2 10.5-15.2 11.2-44.4 44.2-65 73.5-26.5 37.5-51.8 56.9-81.6 62.6-15.5 2.9-33.9-.2-45.9-7.7-11.2-6.9-20.6-18.7-24.5-30.5-1.2-3.5-2.6-6.4-3.2-6.4-.6 0-5 3.7-9.7 8.3-8.5 8.2-18 15.7-21.3 17-1.1.4-2.8-.3-4.7-1.8-3.6-3.1-9.1-11.5-9.1-14.1 0-1.1 5.2-6.8 13-14.3 15-14.2 19.5-20.3 25.5-34.4 15.7-37.5 35.1-62.6 60-77.3 15.8-9.4 37.3-16.6 50.2-16.8 6.1-.1 7.5.2 9.5 2.2 2.8 2.5 7.3 14.4 6.4 16.7-.3.9-2 2.1-3.8 2.7-7.6 2.6-27.2 13.2-34.5 18.6-16 12-28.3 27.8-34.5 44.3-4 10.9-5 25.8-2.3 34.1 6.2 19.2 25 25.4 46 15.3 23-11.1 40.4-37.8 44.5-68.3 1.6-11.8.8-28.9-2-40.1-1.9-7.9-1.9-8.5-.3-11 2.1-3.3 3.4-4.3 11.4-8.6 7.5-3.9 11.5-4.4 15.1-1.6 5.7 4.5 12 22.1 13.3 36.9.4 4.6 1.1 8.4 1.5 8.7.4.2 4.7-3.9 9.5-9.3 23.8-26.2 37.8-37.7 54-44.4 7.3-2.9 9-3.2 18.5-3.3 8.3 0 11.3.4 14.2 1.9 9.4 4.6 14.7 14 15.6 27.2.2 4.7.8 8.7 1.3 8.9.4.3 3-2.4 5.7-5.9 9.6-12.1 23.2-22 35.5-25.8 8.6-2.6 24.2-2.3 29.6.6 5.4 2.8 12.1 9.6 14.8 14.9 10.3 20.4-6 48.2-28.2 48.1-13.4-.1-22.5-9.5-22.5-23.4 0-3.3-.4-6-.8-6s-2.2 1.5-3.9 3.2c-9.9 10.5-14.7 27.2-11.2 38.9 2.7 8.9 11 14.8 21 14.9 15.7 0 31.9-10 67.6-41.8 28-24.9 38.7-32.8 53.9-39.9 20.2-9.3 43.3-9.9 58.7-1.5 9.3 5 16.7 14.1 18.5 22.9.4 2 1.2 3.8 1.8 4 1.1.4 11.3-14.8 52-77.2 11.1-17.1 21.4-32.7 22.8-34.8l2.6-3.7h23.3c12.9 0 23.6.3 24 .6z"/><path d="M1408.4 322.9c-5.9 3.6-10.4 12.5-10.4 20.5 0 6.2.9 7.1 5.6 5.1 9.6-4 16.4-12.6 16.4-20.7 0-3.7-.4-5-1.9-5.8-2.9-1.5-6.2-1.2-9.7.9zM1775.6 437.5c-12.9 5.3-26.1 16.7-38.5 33.1-13.5 18.1-20 34-20.8 50.9-.4 9-.2 10.4 1.9 14.5 3.4 6.5 7.6 9 15.4 9 7.9 0 13.9-2.2 23.4-8.5 15.7-10.4 30.6-27.7 41.9-48.5l3.9-7.3-2.6-2.2c-2.6-2.2-2.6-2.5-1.4-5.7.8-1.8 2.3-5.6 3.4-8.3 2.9-7.4 2.9-17 0-21.7-4.8-7.6-15.6-9.8-26.6-5.3z"/></svg>