<svg xmlns="http://www.w3.org/2000/svg" width="5906.667" height="770.667" version="1.0" viewBox="0 0 4430 578"><path d="M527 .6c-64.4 3-111.8 8.3-164 18.5C206.9 49.6 84.4 114.6 30.5 195.5c-40.4 60.5-40.4 126.3 0 187C92.1 475.1 243.8 546.3 429 569.4c49.8 6.2 79.9 8 135.5 8 54 0 84.4-1.7 131.5-7.4 128.9-15.8 245.8-55.6 323.6-110.3 36.1-25.4 65.3-54.9 83.7-84.7 21.4-34.8 29.5-74 23.1-112-11.3-67.2-70.8-131.7-165.4-179.4C870.8 38.1 760 10.7 630.5 2 615.4.9 540.9 0 527 .6zm119.5 47.8c70.4 5.7 131 16.1 189.5 32.7 24.7 7 30.5 11.7 25 20.6-2.7 4.4-19.4 17.6-38 29.9-38.7 25.7-86.4 49.7-142 71.7-59.5 23.5-108.1 39.2-143.9 46.4-12.2 2.5-15.7 2.8-33.6 2.8-19.3 0-20.3-.1-27.9-2.8-22-7.8-31.6-21.6-31.6-46 0-18.3 5.5-38.3 19.5-71.2 16.1-37.9 29.3-57.5 48-71.3 9.6-7.1 17.5-10.5 31.6-13.7 8.3-1.9 75.6-1.3 103.4.9zM379.2 66.7c2.3 2.1 2.3 6-.1 9.9-1.1 1.8-6.2 8.3-11.4 14.6-59.8 72.8-123.5 182.2-179.4 308.3-14.1 31.7-14.9 33.3-18.1 36.7-5.8 6.2-12 4.5-31.9-9.1-62.4-42.3-94.2-91.9-91.9-143.1.8-18.5 4.8-33.5 13.7-51.3 19.9-39.6 61.5-76.5 120.4-106.8 48-24.7 101.4-43.2 166-57.4 17.4-3.9 29.7-4.6 32.7-1.8zm594.9 73.8c14.6 7.3 41.9 28.1 58.6 44.6 40.1 39.7 55.8 80.8 47.8 125.4-9.6 53.2-59.3 105.2-138 144.4-39.8 19.8-82.4 35.1-133 47.9-30.5 7.7-44.1 10.3-52 10-6-.3-7-.6-8.8-3-2-2.6-2-2.6.2-7 1.2-2.3 5.5-8.4 9.7-13.3 16.8-19.9 44.1-57.7 63.3-87.3C861.5 340.7 907.1 254.6 942 175c12.4-28.3 14.8-32.9 18.3-35 4.3-2.6 7.9-2.5 13.8.5zM650.5 326.4c15.6 4.3 25.4 11.5 31 22.9 9.8 20.1 6.5 45-12.1 89.8-15 36.4-25.6 54.2-41.3 69.1-12.4 11.8-23.4 17.9-39.4 21.6-6 1.4-12.4 1.7-38.2 1.6-85.8-.3-175.7-12.4-251.4-33.8-27.2-7.7-31.1-9.9-31.1-17.3 0-2.8 1-4.4 5.3-8.7 14.4-14.4 53.3-39.5 93.2-60.2 69.9-36.1 186.2-78.1 236.5-85.3 4.1-.6 8.6-1.3 10-1.5 5.8-1 31.7.3 37.5 1.8zM4268 124.5V168h18l.1-33.3.1-33.2 3.4 14c1.9 7.7 5.5 22.7 8 33.3l4.6 19.3 8.6-.3 8.6-.3 8.2-32.5 8.2-32.5.1 32.7.1 32.8h18V80.9l-14.2.3-14.1.3-7.1 29.2c-3.9 16.1-7.4 28.7-7.7 28-.3-.7-3.5-13.9-7-29.4l-6.4-28.3H4268v43.5zM4369 124.5V168h17.3c21.6 0 26.2-1.1 32.7-7.9 7.2-7.4 8.5-12.7 8.5-34.6 0-23.6-2.2-32.7-9.5-38.8-5.4-4.6-11.5-5.7-31.2-5.7H4369v43.5zm32.6-29c2.5 1 4 2.6 5.4 5.7 3.7 8.7 3.4 40.2-.5 47.8-2.1 4.1-7.1 6.2-13.8 5.8l-5.2-.3-.3-29c-.1-15.9 0-29.5.3-30.2.6-1.8 9.7-1.7 14.1.2zM1336 289v207h99V330h179v166h99V82h-99v158h-179V82h-99v207zM1752.8 83.2c.5.7 38.8 61.5 85.1 135.1l84.1 133.8V496h99V352.7l83.7-133.1c46-73.2 84.3-134.1 85.1-135.4l1.4-2.2h-58.3l-58.4.1-51 81.4c-28 44.8-51.4 81.3-51.9 81.1-.6-.1-23.9-36.8-52-81.4l-51-81.2h-58.4c-46.6 0-58.2.3-57.4 1.2zM2231 289v207l155.8-.3 155.7-.3 7.5-2.1c4.1-1.2 11.8-4.3 17-6.9 7.7-3.8 10.9-6.2 17.5-12.8 4.4-4.5 9.7-11 11.8-14.6 5-8.7 9.3-22.4 10.6-34.2.8-6.6 1.1-63.4 1.1-176.3V82h-99v154.5c0 171 .5 157-6.3 164.3-6 6.3-4.6 6.2-92.9 6.2H2330V82h-99v207zM2699 289v207h99V170.9l82.3.3c90.5.3 84.5-.1 91.1 6.5 6.5 6.4 6.1-5.9 6.4 164l.2 154.3h98V327.2c0-180.4 0-179.3-4.9-193.5-5.4-15.5-16.1-29.6-28.9-38-7.9-5.3-14-8-24.2-11l-7.5-2.2-155.7-.3L2699 82v207zM3168 289v207h152.3c144.7 0 152.6-.1 161.2-1.9 17.1-3.5 29.5-10.2 40.7-21.9 11.1-11.5 18.3-27 20.8-44.7.8-5.7 1-47.2.8-143.5l-.3-135.5-2.2-8c-8.6-30.6-29.4-50.3-59.8-56.6-8.6-1.8-16.5-1.9-161.2-1.9H3168v207zm262.8-116.5c3.2 1 6.6 2.9 8.7 5 6.7 6.8 6.5 3 6.5 111.5 0 108.9.3 104.5-6.7 111.1-7.1 6.8-.8 6.4-91 6.7l-82.3.3V171h79.8c69 0 80.5.2 85 1.5zM3695.6 83.6c-30.8 6.1-50.9 24.1-60.3 53.9l-2.8 9-.3 174.7-.2 174.8h98V368h179v128h99V82l-152.7.1c-124.8.1-154.1.3-159.7 1.5zM3909 224.5V278h-179v-44.4c0-30.4.4-45.4 1.1-47.7 2.4-7.2 7.9-12.1 15.4-14 1.7-.4 38.9-.7 82.8-.8l79.7-.1v53.5zM4104 289v207h99V82h-99v207z"/></svg>