<svg xmlns="http://www.w3.org/2000/svg" width="3798.667" height="549.333" version="1.0" viewBox="0 0 2849 412"><path d="M6.3.7C5 .9 3.1 2.3 2 3.7 0 6.3 0 6.7.2 206.6l.3 200.3 2.3 2.3 2.3 2.3 44.4.3c30.1.2 45.8-.1 48.6-.8 7.4-2 6.9 9.9 6.9-160.7V97.5l47.1 75.5c104.1 167 132.5 212.3 137.2 218.5 8.5 11.4 17.1 16.3 32.6 18.7 5.4.9 29.8 1.2 84.1 1.3 85.1 0 81 .3 82.4-6.6.8-4.3.6-395.7-.3-398.9-.4-1.5-2.1-3.2-4.1-4.2C480.8.2 476.4 0 436.9 0c-45.6 0-48.8.3-51.2 4.4-.9 1.6-1.3 37.3-1.7 158l-.5 155.9-4.6-7.4c-2.6-4.1-10.2-16.2-16.9-26.9-11.8-18.6-33.8-53.7-75.5-120-10.6-16.8-27-42.9-36.5-58-9.5-15.1-24.3-38.5-32.8-52-22.5-35.8-27.5-42.1-38-47.4C167.1.5 169.7.6 85.5.4 43.1.3 7.5.4 6.3.7zM590.3 1.5c-2.1.9-3.5 2.4-4 4.2-.4 1.5-.8 92.1-.8 201.3 0 158 .3 199 1.3 200.7.7 1.2 2.9 2.7 5 3.3 5.5 1.5 100.6 1.3 105.2-.3 2.6-.9 3.8-2.1 4.7-4.7 1.6-4.7 1.8-393.5.2-399.3-1.8-6.8-1.3-6.7-58.1-6.7-40.8.1-50.9.3-53.5 1.5zM904.2 1.1C847 6.6 813.1 32.4 801.6 79.2c-3.2 13-4.6 26.9-4.6 45.9 0 19.9 1.7 38.4 4.5 49.6 9.2 36.2 40 58.7 91.5 66.7 15 2.4 68.4 7.5 171.5 16.6 25.3 2.2 47.4 4.5 49.2 5.1 4.6 1.5 8 4.5 10.5 9.2 1.9 3.6 2.3 6.2 2.6 19.2.4 16.8-.4 21.9-4.4 25.6l-2.6 2.4-158 .5-158 .5-2.4 2.8-2.4 2.8v80l2.5 2.5 2.5 2.5 170.7-.4c155.5-.3 171.7-.4 181.3-2 52.8-8.6 77.4-31.6 85.6-80.2 2.1-12.8 2.9-46.8 1.5-65.3-4.4-57.1-31.2-86.4-90.1-98.7-18.9-4-41-6.4-182.2-19.9-51.8-5-51.2-4.8-55.1-13.5-1.8-3.8-2.1-6.6-2.1-15.6 0-6.2.5-12.6 1.2-14.6 1.6-4.7 5.7-8.5 10.7-9.8 2.8-.8 48-1.1 150.3-1.1h146.3l2.4-2.5 2.5-2.4V45.2c0-37.9-.1-40.1-1.9-42.3l-1.9-2.4-155.4-.1c-85.4-.1-159 .2-163.6.7zM1421.5 1.1c-24.8 2.4-47.2 9.6-63.3 20.3-6.2 4.1-17.6 14.8-22 20.6-8.2 10.8-15.7 29.4-18.7 46-3.9 22-2.9 67.3 2 86.6 9.2 36.4 38.6 58 91 66.8 13.1 2.2 76.9 8.3 177.5 17.1 26.4 2.3 42 4 44.7 5.1 9.2 3.4 12.3 11.2 12.3 30.8 0 14.8-.9 19.2-4.6 22.7l-2.6 2.4-158 .5-158 .5-2.4 2.8-2.4 2.8v80l2.5 2.5 2.5 2.5 170.7-.4c153.5-.3 171.8-.5 180.8-1.9 32.1-5.4 52.8-15.3 65.9-31.7 9.5-11.8 15.4-25 19-42.4 5.1-24.6 4.7-74.4-.9-96.2-9.7-38.3-33.2-60.4-76-71.5-22-5.7-37-7.4-208.2-23.9-34.5-3.3-35.9-3.7-39.6-12-1.8-3.8-2.1-6.6-2.1-15.6 0-6.2.5-12.6 1.2-14.6 1.6-4.7 5.7-8.5 10.7-9.8 2.8-.8 48-1.1 150.3-1.1h146.3l2.4-2.5 2.5-2.4V45.2c0-37.9-.1-40.1-1.9-42.3l-1.9-2.4-155.4-.1c-85.4-.1-159.3.2-164.3.7zM1989 .9c-20.8.6-21.7.7-27 3.3-4 2-6.4 4.1-8.7 7.5-3 4.6-10.8 21.3-20.6 44.3-2.5 5.8-12.5 28.9-22.2 51.5-9.7 22.5-21.9 50.7-27 62.5-10.4 24.2-36.2 83.6-54.3 125-11.2 25.7-34 77.1-43.1 97.5-5.8 12.9-5.5 16.9 1.5 18.5 5.4 1.3 103.9 1.3 108.5 0 1.9-.6 4.5-2 5.7-3.3 1.3-1.3 9.2-19.1 17.6-39.5 8.5-20.4 15.7-37.5 16.1-38.1.4-.8 34.4-1.1 115.6-1.1h115l2.6 5.8c1.4 3.1 8.3 19.9 15.5 37.2 7.1 17.3 13.6 32.5 14.4 33.8.8 1.3 2.9 3.2 4.7 4.2 3.1 1.9 5.5 2 59.8 2 62.3 0 59.8.3 58.5-6-.9-5-13.3-33.2-89.1-204.5-52.9-119.4-56.2-126.9-67.2-153.4-16.4-39.6-19-42.9-35.5-45.1C2109.4.3 2046.9-.6 1989 .9zm80 93c1.5 1.1 3.8 5 5.7 9.7 1.7 4.3 7.9 19.8 13.7 34.4 10.2 25.9 27.3 68 36.1 89.1 2.4 5.8 4.7 11.7 5 13.2l.7 2.7h-79.1c-47.9 0-79.1-.4-79.1-.9s6.6-16.8 14.6-36.3c8-19.4 21.4-51.7 29.6-71.8 8.4-20.2 16.2-37.6 17.4-39 3-3.1 9.2-4 22.9-3.4 7.7.3 10.6.9 12.5 2.3zM2365.8 1.6c-1.5.8-3.2 2.3-3.8 3.4-1.3 2.5-1.4 397.8 0 401.4 2.1 5.6 2.9 5.7 52.4 5.4l45.4-.3 2.6-2.4 2.6-2.4.2-154.6.3-154.5 85.4 136.9c47 75.4 88.7 142 92.8 148.1 8.2 12.5 16 20.5 22.9 23.6 10.8 4.7 15.1 5 94.8 5.5 41.1.3 76.7.2 79.1-.1 2.3-.4 5.2-1.6 6.4-2.7l2.1-2V206.4c0-133.3-.3-201.2-1-202.4-.6-1.1-2.7-2.4-4.8-3-5.1-1.4-88.8-1.4-92.9 0-1.7.6-3.5 2.2-4.2 3.6-.8 1.8-1.1 43.9-1.1 158.2 0 132.1-.2 155.4-1.4 154.2-.7-.8-31-48.8-67.3-106.5-36.3-57.8-76.9-122.3-90.2-143.5-27.9-44.4-33.3-51.8-42-57.7-13-8.9-16.7-9.3-103.1-9.2-62.1 0-72.9.2-75.2 1.5z"/></svg>