<svg xmlns="http://www.w3.org/2000/svg" width="7294.667" height="1200" version="1.0" viewBox="0 0 5471 900"><path d="M652 .6C606.7 3 580.7 5.3 549.3 9.5c-151.9 20.6-290.6 75.1-389.8 153C58.9 241.6 3.9 337.7.3 440.5c-2.4 72.1 21.7 143.2 70.5 208 13.4 17.8 22.1 27.6 43.2 48.6 15.3 15.2 21.6 20.9 23.9 21.4 2.1.4 3.1 1.3 3.1 2.5 0 .9.7 2.3 1.5 3 1.3 1.1 1.5.8 1.5-1.4 0-1.6.5-2.6 1.5-2.6.8 0 1.5.8 1.5 1.7 0 1.5-.2 1.6-1 .3-.6-.9-1-1-1-.3 0 .6.5 1.5 1 1.8.6.3 1 1.4 1 2.4s1.6 3.1 3.6 4.6c2.9 2.2 3.8 2.5 4.5 1.4.5-.8.9-2 .9-2.7 0-.6.4-1.2.9-1.2.9 0 .8 2.7 0 5.9-.7 2.5 35.4 28.6 62.2 44.9 101.9 62 231.2 102.7 369 116.1 38.9 3.8 55.7 4.6 102.9 4.5 55 0 85.6-1.8 133.5-7.9 134.4-17.3 259.8-61 356-124.2 61.7-40.6 109.6-86.6 143.9-138.3 10.9-16.4 16.8-26.4 23.4-39.5 8.1-16.2 17.8-41.2 21.7-55.6 1.5-5.9 1.6-6.9.2-9.5-1.3-2.6-1.3-3.2.4-6.3 1.8-3.3 1.8-3.4-.4-5.2-1.2-1-1.6-1.8-.9-1.9.6 0 1.2.5 1.2 1 0 .6.6.9 1.2.8 2.1-.5 2.1 4.3 0 6.5-1.7 1.8-1.8 2.4-.7 3.4 1.8 1.7 2 1.4 4.3-9.7 12.9-60.2 6.7-123.7-17.4-181.2-3.7-8.7-5-10.9-7.2-11.7-1.7-.6-2.1-1-.9-1 2.2-.1 2.1-.9-.3-6.2l-2-4.4v5.7c0 4.9-.3 5.8-1.7 5.8-1.5 0-1.6-.2-.3-1 .8-.5 1-1 .4-1-.7 0-1.1-2.7-1.2-7.4 0-7.2-.2-7.6-6.3-18.2-42.7-74.3-115.1-140-210.6-191.2-6.2-3.3-11.4-5.5-11.4-4.9-.1.7-.2 2.2-.3 3.4-.2 3.1-2.2 4.9-2.2 2 0-1.2.5-2.5 1-2.9.7-.5.7-.8-.1-.8-.7 0-1.3-1-1.3-2.3 0-1.6-1-2.7-3.8-3.9-2-.9-10.9-5-19.8-9.1C994.2 38.1 881.7 10.8 757 2 742.6.9 664.4-.1 652 .6zM731 54c98.5 3.9 191.5 20.4 253.8 45.1 4 1.6 7.6 2.9 8.1 2.9 1.3 0 2-3.7.9-4.8-.6-.6-.6-1.2.1-1.6.6-.4 1.1 0 1.1.8 0 .9.5 1.6 1 1.6.6 0 1 .7 1 1.6 0 .8-.4 1.3-.9 1-.5-.4-.7.2-.4 1.3.6 2.4 5.3 4.7 5.3 2.6 0-.9.6-1.2 1.5-.9.8.4 1.5 1.4 1.5 2.3 0 1 1.4 2.2 3.3 2.9 2.9 1.1 3.4 1 4.9-.9 1-1.2 1.5-2.5 1.2-3-.3-.5 0-.9.6-.9 1.1 0 1 1.9-.4 6.2-.3.8 2.1 2.5 6.7 4.8 38.6 18.8 66.3 46.2 72.2 71.2 14 59.4-73.2 115.5-221.9 142.7-9.2 1.7-17.6 3.1-18.6 3.1-1.5 0-2-1-2.5-4.8-1.9-13.5-8.2-44.3-13.1-64.2-11.8-48.1-29.5-93.8-48.7-125.5-6.6-11-18.9-28.4-21.8-31.1-1.8-1.6-1.9-1.6-2 .7-.1 1.3-.1 3 0 3.6.1.7-.2 1.3-.7 1.3-.4 0-.9-2.1-1.1-4.7-.1-2.5-.6-5.5-1.2-6.5-.5-1-4.9-5.2-9.6-9.4-22-19.2-41.8-27.3-63.8-26-22.8 1.2-41 10.3-61.6 30.6-32.4 32-58.9 84.9-77.9 155.9-5.3 19.5-11.7 49.4-14.6 67.6-.9 6-2 11.4-2.4 11.9-1.2 1.2-42.4-6.1-60.7-10.9-4.1-1.1-5.9-1.2-6.4-.4-.5.8-.9.8-1.4-.1-1.3-2-4.9-2.9-6.5-1.5-.8.7-3.7 1.5-6.5 1.6-4.7.3-5 .2-5.1-2.1-.3-4.7-.4-5-2.2-5-1 0-4-.7-6.7-1.7-3.5-1.2-5-1.3-5.3-.5-.5 1.7-2 1.5-2.4-.4-.2-1-2.5-2.3-5.8-3.4-3-1-6.3-2.1-7.2-2.5-1.5-.6-1.6-.3-.5 2.4.9 2.4.8 3.4-.1 4.3-1.1 1.1-1.5-.2-1.1-3.8.1-1.4-7.6-4.1-9.2-3.3-.9.5-1.9.6-2.2.2-1.1-1 .3-2.3 2.6-2.3 1.2 0-2.3-1.8-7.8-3.9-69.3-26.5-108.5-62.3-108.5-98.9 0-15.3 4.8-27.6 16.1-41.7 14.7-18.2 45-38.5 78.4-52.5 10.4-4.4 12.7-6.1 11.9-8.8-.4-1.2 0-1 1.1.4 1.9 2.5 5.5 2.1 5.5-.6 0-1.3 1-1.7 4.7-1.9 2.6-.1 9.5-1.7 15.3-3.6C505.8 63.1 620 49.7 731 54zm17.5 41c.3.5-.3 1-1.5 1s-1.8-.5-1.5-1c.3-.6 1-1 1.5-1s1.2.4 1.5 1zm8.9 3.5c.9 2.3.8 5.5-.2 5.5-.4 0-1.2-1.5-1.7-3.2-.6-1.8-2-3.8-3.2-4.4-1.3-.6-2-1.4-1.7-1.7 1-.9 6.1 2 6.8 3.8zm347.1-3.5c.3.5.1 1-.4 1-.6 0-1.1-.5-1.1-1 0-.6.2-1 .4-1 .3 0 .8.4 1.1 1zM389 96.4c0 .3-.4.8-1 1.1-.5.3-1 .1-1-.4 0-.6.5-1.1 1-1.1.6 0 1 .2 1 .4zm601 0c0 .2-.7.6-1.5 1-.8.3-1.5.1-1.5-.4 0-.6.7-1 1.5-1s1.5.2 1.5.4zm-281.7 77.3c17.9 8.4 32.2 25.5 46.7 55.6 7.8 16.2 16.1 39.7 21.3 60.2 3.8 14.8 4.6 18.9 8.5 40.2.9 5.1 1.4 9.5 1 9.8-.8.9-19.1 2.3-46.8 3.6-38.2 1.8-111 .4-138.8-2.7l-5.3-.6.7-3.6c2.6-15.9 9.1-45.4 12.8-58.3 14-48.7 34.2-84.2 56.4-99.3 10.2-7 15.8-8.7 27.2-8.3 8.2.2 10.4.7 16.3 3.4zm-535.9 62.8c1.8 12.4 5.5 24.3 11.2 36.2 4.9 10.4 17.3 29.3 19.1 29.3.7 0 1.9 1.5 2.8 3.4.9 1.8 2.9 4.6 4.5 6.1l3 2.9.1-4.5c.1-2.4.1-4.7 0-5.2 0-.4.3-.7.8-.7 1.4 0 2.3 3.2 1.2 4.3-.7.7-.7 1.7 0 2.9.6 1 .8 2.7.4 3.7-.7 2.2 12.5 15.2 26.5 26 53.5 41.5 130.1 73.7 226.5 95.1 10.8 2.4 51.2 10 53.1 10 .2 0 .4 12 .4 26.7 0 97.5 16.6 194.8 45.8 268.8 10.5 26.5 26.6 56.4 40.1 74.5 7.4 9.9 24 27 31.8 32.8 3.5 2.5 6.1 4.7 5.9 5-.2.2-9.6-.4-20.8-1.3-142.5-11.3-270.6-56.5-369.3-130.2-69.1-51.6-120.4-117.3-144.1-184.8-2.9-8.3-3.8-9.7-6.1-8.8-.7.3-1.3 0-1.3-.6s.3-1 .8-1c2.8.5 3-.2 1.7-4.4-.8-2.3-1.6-5.1-1.8-6.2-.3-1.5-.5-1.3-.6.7-.2 5-2.6 3.1-2.9-2.2-.1-2.8.1-5 .6-5s.1-3.7-1-8.2c-19.1-82.3-2.2-169.5 47.4-244.8 6.7-10.1 22.1-31.1 22.5-30.6.1.1.9 4.6 1.7 10.1zm1045.9-.8c35.9 47.6 57.9 98 66.8 152.8 2.7 16.7 3.7 56.6 1.9 74.1-6.5 64.4-31.4 122.8-76.6 179.4-12.3 15.4-45.8 49.5-61.4 62.3-5.8 4.8-15.5 12.4-21.6 17-7.2 5.2-11.4 9.1-11.9 10.6-.8 3.2-3.3 5-6.9 5.1-1.8 0-6.5 2.4-12.8 6.5-33.9 22.4-84.2 47.5-126.8 63.3-54.2 20.1-111.8 34-172.5 41.7-19.5 2.5-59.4 6-60.1 5.2-.2-.2 3.2-3.2 7.6-6.7 68.9-54.2 115.9-208.9 116-381.3 0-10.8.2-19.7.5-19.7.2 0 9.1-1.6 19.7-3.5 127.1-23.3 227.1-66.6 283.4-122.9 26.9-27 43.4-57.9 46-86.3.4-4 .8-7.3 1-7.3.2 0 3.6 4.4 7.7 9.7zM992 302.9c0 .5-1.1 1.1-2.5 1.3-2.6.5-3.5-.6-1.2-1.5 2-.9 3.7-.8 3.7.2zm347 .7c0 .2-.7.4-1.5.4s-1.5-.4-1.5-1c0-.5.7-.7 1.5-.4.8.4 1.5.8 1.5 1zm-944.3 0c-.3.3-1.2.4-1.9.1-.8-.3-.5-.6.6-.6 1.1-.1 1.7.2 1.3.5zm-279.9 8c0 2.4-.7 5.2-1.5 6.1-1.3 1.7-1.4 1.6-.8-.7.8-3.1.9-6.7.1-9.8-.4-2-.3-2.2.9-1.2.9.7 1.4 2.9 1.3 5.6zm326.2 7.6c0 1-7.7 1-8.3 0-.3-.4 1.5-.7 3.9-.7s4.4.3 4.4.7zm-47.6.6c.3.5-.1.9-.9.9s-1.2-.4-.9-.9c.3-.4.7-.8.9-.8.2 0 .6.4.9.8zm600 0c.3.5-.1.9-.9.9s-1.2-.4-.9-.9c.3-.4.7-.8.9-.8.2 0 .6.4.9.8zm-204.7.8c-.3.3-1.2.4-1.9.1-.8-.3-.5-.6.6-.6 1.1-.1 1.7.2 1.3.5zM609.5 456c56.5 3.9 114.4 3.8 167-.4 9.4-.8 17.2-1.2 17.4-1 .5.5-2 45-2.8 50.6-.7 3.9-.5 4.8.7 4.8 1.3 0 1.3.3-.1 1.8-2.3 2.5-2.3 7.2 0 7.2 1.5 0 1.4.2-.3 1.5-1.6 1.1-2.3 2.9-2.8 7.8-1.1 11.2-5.5 36.7-9.1 52.7-6.6 29.4-14.6 53.2-25.5 75.5-9.3 19-15.6 28.3-27 39.6-7.7 7.7-11.1 10.4-17.5 13.5-7.7 3.8-8.3 3.9-18.6 3.9-10.4 0-10.6 0-19.3-4.3-44.5-22.1-78.9-120.3-83.3-237.5l-.6-17.9 3.4.6c1.9.3 10.2 1 18.4 1.6zM96.7 516.2c-.3.8-.6.5-.6-.6-.1-1.1.2-1.7.5-1.3.3.3.4 1.2.1 1.9zM703.5 719c-.3.5-1 1-1.6 1-.5 0-.9-.5-.9-1 0-.6.7-1 1.6-1 .8 0 1.2.4.9 1zm108.8 17.7c-.7.2-2.1.2-3 0-1-.3-.4-.5 1.2-.5 1.7 0 2.4.2 1.8.5z"/><path d="M446.6 315.5c-.8 2.1 1.1 3.7 3.9 3.3 4.1-.4 4.1-2.1 0-3.4-2.5-.8-3.5-.8-3.9.1zM1110.6 733.6c-1.7 1.2-1.7 1.4-.4 1.4.9 0 2-.5 2.3-1.1 1.1-1.7.2-1.8-1.9-.3zM2490.7 108.7c-3.1 2.3-3.1 2.3-.6 2.4 1.3 0 1.8.3 1.1.6s-2 .2-2.8-.1c-1.3-.5-1.4-.9-.4-2.1.7-.9 1-1.8.7-2.1-.8-.8-19.3 1.5-34.7 4.2-85.6 15.5-161.8 62.4-214 131.9-11.9 15.8-20 28.6-29 45.6-5.8 10.9-6.5 12.9-4.9 12.9 1 0 1.9.4 1.9 1 0 .5-.9 1-2 1-1.9 0-2.4 1.3-2.1 5.1.1.9-.5 2.2-1.4 2.9-1.3 1-1.5.9-1.5-.6-.1-1.1-1 .3-2.2 3.1-1.1 2.7-2.6 6.4-3.4 8-5.9 13.6-13.4 38.9-17.3 58.4-5.5 27-6.5 37.9-6.5 69.1 0 31.2 1 42.1 6.5 69.4 5.9 28.9 14.4 53.7 28.4 82.1 17.9 36.5 36.7 62.8 65.5 91.5 17.3 17.3 30.1 28.2 30.8 26.2.5-1.7 2.2-.5 2.2 1.7 0 2.1 5.8 6.5 8.3 6.3 1.1 0 2.1.7 2.4 1.8.8 3 25.7 18.8 44.8 28.3 79.6 39.7 170.7 47.4 254.9 21.5 69.5-21.3 129.6-63.3 173.6-121.3 25.5-33.5 45-72.6 56.5-112.8 2.2-7.8 3.4-13.8 3.1-15.3-.4-1.6-.2-2.4.7-2.4.8 0 1.4-.6 1.4-1.3 0-.6.5-3.6 1.2-6.6 1.2-5.6.6-7-2.6-7.1-.7 0-1.3-.5-1.3-1 0-.6 1.3-.8 2.9-.5l2.8.5 1.7-12.4c7.6-57.2 2.2-111.3-16.7-164.6-3-8.4-4.9-12.3-7.4-14.7-2.8-2.9-3.3-4.1-3.3-8 0-3.8-1.3-7.1-7.4-18.8-38.1-73.1-99.6-129.6-174.7-160.5-20.2-8.3-53.5-18.3-65.1-19.4-2-.2-4.1-.7-4.7-1.1-.6-.3-1.1-.1-1.1.4 0 1.6-1.9 1.3-3.6-.4-1.7-1.7-7.4-2.1-7.4-.5 0 .5-.4 1-1 1-.5 0-1-.7-1-1.5 0-2-3.4-1.9-6.7.2-2.5 1.7-2.5 1.6-1.9-.4.6-1.8.2-2.1-2.9-2.5-2.3-.3-3.5 0-3.5.8 0 .6-.7 1.4-1.5 1.8-1 .3-1.5-.1-1.5-1.3 0-1.7-.9-2-6.6-2.3-6.3-.3-6.5-.2-6.1 1.9.6 3-.7 2.9-2.7-.2-1.5-2.2-2.4-2.5-7.6-2.5-3.3 0-6 .4-6 1 0 .5-.7 1-1.6 1-.8 0-1.2-.5-.9-1 .4-.6-1.1-1-3.7-1-3.2 0-4.6.5-5.6 2-.7 1.1-.8 2-.2 2 .5 0 .7.7.4 1.5-.9 2.3-2.4.7-2.4-2.5 0-2.7-.3-2.8-3.6-2.7-2 .1-5 1.2-6.7 2.4zm23 .9c-.3.3-1.2.4-1.9.1-.8-.3-.5-.6.6-.6 1.1-.1 1.7.2 1.3.5zm25.8 1.4c-.3.5-1.4 1-2.3.9-1.4 0-1.3-.2.3-.9 2.7-1.1 2.7-1.1 2 0zm-43.8.6c-.3.3-1.2.4-1.9.1-.8-.3-.5-.6.6-.6 1.1-.1 1.7.2 1.3.5zm53.6.1c-.7.2-1.9.2-2.5 0-.7-.3-.2-.5 1.2-.5s1.9.2 1.3.5zm-17.5 121.4c21.9 2.3 39.4 7.4 58.7 16.8 61.9 30.4 104.1 92.7 114.6 169.1 1.7 12.4 1.7 49.6 0 62-10.2 74.4-50.7 135.6-110.2 167-55.7 29.3-122.2 25.8-175.7-9.3-49.8-32.6-83.7-87.7-93.9-152.8-2.5-16.1-2.5-55.7 0-71.8 7.6-48.3 27.7-90.4 59.1-123.8 39-41.4 94.6-63 147.4-57.2zm261.6 86.7c.3.5-.1.9-.9.9s-1.2-.4-.9-.9c.3-.4.7-.8.9-.8.2 0 .6.4.9.8zm-600 208c.3.5-.1.9-.9.9s-1.2-.4-.9-.9c.3-.4.7-.8.9-.8.2 0 .6.4.9.8zm600 0c.3.5-.1.9-.9.9s-1.2-.4-.9-.9c.3-.4.7-.8.9-.8.2 0 .6.4.9.8zM3847 106.7c-12.8.7-31.5 3.4-33 4.7-.9.9-3.2 1.3-6 1.2-5.6-.4-28.3 4.9-45.6 10.4-79 25.6-146.6 79.7-189.5 151.6-19.3 32.5-34.2 71.4-41.3 108.3-5.2 26.5-6 35.7-6 67.1 0 31.4.8 40.6 6 67.1C3549.5 609.4 3606 691 3687 742c15.2 9.5 46.3 24.7 62.5 30.5 26.4 9.5 52.5 15.8 79.5 19.2 19.2 2.4 60.6 2.4 79.5-.1 53.9-6.8 99.2-22.9 144.8-51.3 6-3.8 8.7-6.1 8.7-7.4 0-1 .5-1.9 1-1.9.6 0 1 .5 1 1 0 1.7 3.3-.5 3.6-2.3.2-1.2-.4-1.3-2.9-.6-2.8.8-2.9.7-1.6-.6.9-.9 3.6-1.7 6.1-1.8 4-.3 5.7-1.2 13.7-7.6 69.1-55.2 113.6-132.9 126.5-221.1 10.6-72.8-4.4-152.6-40.8-216.6-65.7-115.5-189-182.5-321.6-174.7zm49 127.7c30.2 5.1 57 17 81.5 36.1 12.5 9.7 34.8 32.3 37.9 38.3.8 1.6 2.2 3.2 3.1 3.6.8.3 1.4.9 1.3 1.3-.2.4 2.4 5.1 5.6 10.3 16.9 27.2 28.4 59 33.3 92.5 2.6 17.9 2.3 51.4-.5 70-1.2 7.7-2.8 16.3-3.6 19.2-1.2 4.4-1.2 5.2 0 5.7.8.3 1.4 1.6 1.3 2.8 0 1.3-.3 1.7-.6 1-1.1-2.8-2.9-.8-4.9 5.3-2 6.3-2 6.5-.1 6.5 1 0 2.8-.5 4-1.1 1.8-.9 2-.9 1 .2-.7.7-2.7 1.8-4.4 2.3-2.6 1-3.5 2.3-6.9 10.9-27.6 68.9-83.8 116.3-150.5 126.8-13.2 2.1-40.9 1.6-54.7-.9-59.9-11.2-111.4-53-139.8-113.5-2.6-5.6-5.8-13-7-16.5-1.3-3.4-2.8-6.2-3.5-6.2-.8 0-1.3-1.3-1.2-3.8.1-2-1.1-8-2.5-13.2-6.7-24.4-9.5-59.1-6.9-85.4 3.6-36.6 16-73.7 34.5-103 3.1-4.8 5.6-9.4 5.6-10.2 0-.8.6-1.4 1.3-1.4.6 0 3.1-2.6 5.4-5.8 2.3-3.1 7.4-9.3 11.5-13.6 30.8-33.4 71.8-54.8 114.3-59.6 10.5-1.2 34.8-.4 45.5 1.4zm-181.5 80.2c-.3 2.8-2.5 5.8-2.5 3.3s1.2-5.9 2-5.9c.5 0 .7 1.2.5 2.6zm309-1.6c-.3.5-1.1 1-1.6 1-.6 0-.7-.5-.4-1 .3-.6 1.1-1 1.6-1 .6 0 .7.4.4 1zm-315.2 7.7c-.7.2-2.1.2-3 0-1-.3-.4-.5 1.2-.5 1.7 0 2.4.2 1.8.5zm364.5 402.6c.3 2.1 0 2.6-1.2 2.1s-1.3-1.1-.6-2.4c.8-1.4.6-2-.8-2.4-1.3-.4-1.3-.4.3-.3 1.4.2 2.1 1.1 2.3 3zm-15.4 8.1c-1 4.2-2 3.8-1.6-.6.3-2.5.8-3.6 1.4-3 .5.5.6 2.1.2 3.6zm-64 4.4c.3.5-.1.9-.9.9s-1.2-.4-.9-.9c.3-.4.7-.8.9-.8.2 0 .6.4.9.8zm-298.6.9c-1 .2-2.8.2-4 0-1.3-.2-.5-.4 1.7-.4 2.2-.1 3.2.1 2.3.4zm357.5 0c-.7.2-2.1.2-3 0-1-.3-.4-.5 1.2-.5 1.7 0 2.4.2 1.8.5zM1585 189.5V249h202v529h145v-20.3c0-15.3-.3-20.7-1.3-22.2-1.5-2.2-2.8-6.5-2-6.5.3 0 1.2.8 1.9 1.8 1.2 1.5 1.3 1.2 1.4-2.7 0-3.7-.2-4.2-1.5-3.1-1.2 1-1.5.9-1.5-.7 0-1 .7-2.8 1.5-3.9 2.1-2.7 2.3-189.8.2-192.9-1.5-2.2-2.8-6.5-2-6.5.3 0 1.2.8 1.9 1.7 1.2 1.6 1.3 1.3 1.4-2.6 0-3.7-.2-4.2-1.5-3.1-1.2 1-1.5.9-1.5-.7 0-1 .7-2.8 1.5-3.9 2.1-2.7 2.3-189.8.2-192.9-1.5-2.2-2.8-6.5-2-6.5.3 0 1.2.8 1.9 1.7 1.2 1.6 1.3 1.3 1.4-2.6 0-3.7-.2-4.2-1.5-3.1-1.2 1-1.5.9-1.5-.7 0-1 .7-2.8 1.5-3.9 1.2-1.6 1.4-6.7 1.5-28.7V249h202V130h-549v59.5zM2868.1 133.7c3.5 5.7 236 375.8 236.3 376 .2.2 4 1 5.7 1.2.4.1.9.8 1.2 1.6.5 1.1.1 1.2-2 .4-1.4-.5-2.7-.8-2.9-.7-.1.2 1.1 2.6 2.8 5.3 1.7 2.8 3.3 4.4 3.5 3.7.9-2.4 2.5-1.2 2 1.5-.3 1.6.3 3.8 1.4 5.7 1.8 3 1.9 6.8 1.9 101.3 0 77.6.3 98.2 1.3 98.6 1 .4 1 .7 0 1.8-1 1-1.3 7.3-1.3 24.6V778h147V532.5l67.7-107.5c53.9-85.7 67.8-108.3 68.1-111.5.2-2.2 1-4.3 1.6-4.7.7-.5.7-.8.1-.8s-1.1-.9-1.2-2c-.1-1.1.4-2 1.3-2 .7 0 1.3.8 1.2 1.7-.1 1 0 2.7 0 3.8.2 1.7.5 1.4 2.2-1.3 1.1-1.8 1.9-3.8 1.7-4.5-.1-.6.3-1.1.8-1.1.8.2 37.1-57 104.3-164.2l5.2-8.4-84.7.2-84.8.3-77 133.6c-42.3 73.5-77.7 134.6-78.5 135.7-1.4 2.1-2.5.4-24-36.9-27-46.9-24.7-42.9-29.4-51.1-2-3.7-4.2-7-4.7-7.3-1.3-.9-5.9 4.4-5.2 6.1.3.8 0 1.4-.6 1.4-.7 0-1-1-.8-2.3.4-3 2.9-6.7 4.5-6.7.8 0 1.2-.6.9-1.3-.3-.6-22.5-39.5-49.5-86.2l-49-85-84.7-.3-84.7-.2 2.3 3.7zM3395 312.4c0 .2-.7.9-1.5 1.6-1.2 1-1.5 1-1.5-.4 0-.9.7-1.6 1.5-1.6s1.5.2 1.5.4zm-254 6.6c0 .5-1.2 1-2.7.9-2.5 0-2.6-.1-.8-.9 2.7-1.2 3.5-1.2 3.5 0zm256 1c0 .5-1.5 1-3.2 1-2.5 0-2.9-.3-1.8-1 2-1.3 5-1.3 5 0zM4256 189.5V249h202v529h145v-20.5c0-13-.4-20.5-1-20.5s-1-3.6-1-8.9c0-5 .5-9.3 1-9.6.7-.4 1-33.2 1-95.1 0-62.3-.3-94.4-1-94.4-.6 0-1-3.6-1-8.9 0-5 .5-9.3 1-9.6.7-.4 1-33.2 1-95.1 0-62.3-.3-94.4-1-94.4-.6 0-1-3.6-1-8.9 0-5 .5-9.3 1-9.6.6-.4 1-10.5 1-27.1V249h202V130h-549v59.5zm337.4 130.3c.3.5-.1.9-.9.9s-1.2-.4-.9-.9c.3-.4.7-.8.9-.8.2 0 .6.4.9.8zm0 208c.3.5-.1.9-.9.9s-1.2-.4-.9-.9c.3-.4.7-.8.9-.8.2 0 .6.4.9.8zm0 208c.3.5-.1.9-.9.9s-1.2-.4-.9-.9c.3-.4.7-.8.9-.8.2 0 .6.4.9.8zM5022.1 132.2c-.5 1.3-16.5 40.1-35.5 86.2-26.2 63.5-34.4 84.1-33.4 84.8 1 .6.7 1-.9 1.4-1.4.4-2.4 1.7-2.8 3.5-.4 1.6-1.1 3.1-1.6 3.4-.5.4-.9 2.2-.9 4.1 0 3.2 1 4 4.3 3.5.4 0 .7.4.7.9 0 .6-1.6 1-3.5.8-1.9-.1-3.7.1-4 .4-.6.5-188.5 455.6-188.5 456.4 0 .2 38 .4 84.4.4 79.4 0 84.4-.1 85.1-1.8.3-.9 3.1-8 6-15.7 2.9-7.7 6.2-16.3 7.3-19.1l2.1-5.1-2.5.3c-3.4.3-3-1.3.5-2.1 3.4-.7 4.9-3.7 5.4-11 .3-3.5.8-5.1 1.9-5.3 1-.2 6.6-13.6 16.8-40.5 8.4-22.1 15.9-41.4 16.7-43l1.4-2.7 132.5.2 132.6.3 19.9 52c10.9 28.6 19.9 51 19.9 49.7.1-1.2.2-5.1.2-8.7.1-3.5.4-6.2.8-6 .4.3.8 3.8.7 7.8 0 4.1.3 7.9.7 8.5.4.7.1 1.2-.9 1.2-1.3 0-1.5.5-1 1.7.4 1 4 10.2 7.9 20.5l7.1 18.8h169.4l-2.8-6.8c-8.8-20.6-184.5-447-184.9-448.5-.2-.9-1-1.7-1.8-1.7-1.7 0-2.9-2.1-1.6-2.9.6-.4-13.9-36.7-37.6-94.4l-38.7-93.7H5023l-.9 2.2zm135.3 267.4c34.2 89.8 43.4 113 44.7 112.7 1.3-.4 1.5.8 1.6 6.9 0 6.8.2 7.3 2.4 7.8 2.4.6 2.4.6-.3 1.2-3 .6-4.8-.7-4.8-3.4 0-1.5-.8-1.8-4.4-1.8-2.6 0-4.8.6-5.6 1.5-1.6 1.9-3.1 1.9-2.4 0 .5-1.3-9.3-1.5-82.9-1.7l-83.5-.3 45.1-118.3c24.8-65 45.6-118.1 46.1-117.9.5.2 20.3 51.2 44 113.3zm115.3-90.9c-.3 1-.5.4-.5-1.2 0-1.7.2-2.4.5-1.8.2.7.2 2.1 0 3zm.7 9.8c.3.8.1 1.5-.4 1.5-.6 0-1-.7-1-1.5s.2-1.5.4-1.5.6.7 1 1.5zm-80 1.3c.3.5-.1.9-.9.9s-1.2-.4-.9-.9c.3-.4.7-.8.9-.8.2 0 .6.4.9.8zm2.1 208.1c-1.9.8-8.5.4-9.4-.5-.2-.2 2.2-.4 5.5-.3 3.9 0 5.2.3 3.9.8z"/></svg>