<svg xmlns="http://www.w3.org/2000/svg" width="1226.667" height="248" version="1.0" viewBox="0 0 920 186"><path d="M80.1 42.2c-11.2 1-15.1 2.4-17.8 6.5-1.6 2.5-1.8 5.2-1.5 28.3.4 33.5 1.5 47.7 4 53.3 3.2 7.3 18.7 18.1 43.4 30.2l12.8 6.4 3.8-1.6c15.8-6.5 47.2-25.6 50.9-30.9 1.1-1.6 2.5-4.5 3.2-6.4 1.7-4.9 3-29.5 3.1-54.8 0-23.8-.5-26.3-6.4-28.7-1.8-.8-8.6-1.9-15.2-2.4-14.1-1.3-65.5-1.2-80.3.1zm66.4 3.8c22.6 1.2 26.2 1.7 28.6 4.3 1.7 1.9 1.9 3.7 1.9 22.1-.1 29.6-1.5 51.7-3.6 56.2-1.1 2.2-4.2 5.5-7.8 8.1-12.2 9-40.1 24.3-44.4 24.3-4.4 0-36-17.7-46-25.7-4.8-3.9-6.7-7.1-7.6-12.8-1.2-7.3-2.5-62.9-1.6-67.4.4-2.5 1.6-5 2.5-5.7 4.6-3.4 44.7-5.2 78-3.4z"/><path d="M93.1 60.7c-4.3.6-10.2 4.4-12.4 8.3-2.1 3.4-1.5 3.6 3.7 1.5 3.4-1.4 4-1.4 8.1.4 4.2 1.9 13.1 9.8 17.1 15.2 4.8 6.7 9 3.6 10.1-7.3l.6-6.5-4.7-3.6c-8.7-6.6-15.3-9-22.5-8zM140.2 61.2c-1.9.5-5.6 2.5-8.3 4.3-2.7 1.9-5.3 3.5-5.9 3.5-3.9 0-3.8 17.6.2 20.1 2.2 1.5 2.8 1.1 11.1-7.5 4.5-4.6 10.1-9.3 12.3-10.5 4.1-2 5.9-1.9 11.7.4 4.3 1.8-1.4-6.5-6.2-8.9-3.6-1.8-11-2.5-14.9-1.4z"/><path d="M81.2 73.5c-3.6 1.6-5.9 5.8-6.8 12.9-.6 3.7-.3 4.6 1.4 5.5 1.3.7 2.7 3.5 4.1 7.9 2.2 7.4 8 15.2 11.2 15.2 2.3 0 2.3-.1.5-11-1.4-8.4-1.2-13.5.5-14.6 1.8-1.1 2.8.7 1.8 3.3-1.3 3.6-.5 5.5 3.5 7.7 3 1.6 3.5 2.5 4.5 7.7.7 3.3 2.9 9.2 5 13.2 2.1 3.9 4.2 8.7 4.6 10.5.4 1.8 1.3 3.6 2 3.9.8.2 1.1 1.1.8 1.9-.3.9.7 1.9 3.2 3 4.3 1.7 8.2.9 9.9-2.2.6-1 1.6-2.2 2.3-2.7.6-.4 1.4-2.5 1.8-4.7.4-2.2 1.8-5.7 3.2-7.7 3.1-4.5 6.3-13.5 6.3-17.4 0-2.3.9-3.4 4.1-5.5 4.1-2.5 4.1-2.7 3.5-7-.4-3.5-.3-4.4.9-4.4 2.5 0 3.2 5.8 1.8 15-1.6 11-1.6 11 .6 11 3.8 0 10.5-10.4 11.7-18 .5-3 1.3-4.4 2.5-4.7 2.6-.7 2.5-8.3 0-14-1.6-3.4-2.7-4.4-5.9-5.4-7.9-2.3-12.3 1-19.3 14.3-2.2 4.3-4.4 7.8-5 7.8-.5 0-.7 1.1-.3 2.5 1 4-.3 6.9-3.6 8.2-2.1.8-3 1.8-3 3.4 0 2.1.1 2.1 1.8.6 1-1 2.2-1.4 2.5-1 .9.8-1.2 3.3-2.8 3.3-1.6 0-3.5 7.5-3.5 13.9 0 4.5-.3 5.1-2 5.1-2.5 0-3.6 2.5-2 4.5 1 1.3.9 1.5-1.2 1.5s-2.4-.4-2-2.9c.3-2.5 0-3-1.9-3.3-2.1-.3-2.4-.8-2.1-4.1.6-6.3-1.6-13.7-4.4-14.7-1.3-.5-2.4-1.7-2.4-2.6 0-1.5.2-1.5 2.5 0 1.8 1.2 2.5 1.3 2.5.4 0-2.1-1.4-3.6-4.4-4.8-2.6-.9-2.8-1.4-2.4-5.5.2-2.5 0-4.5-.4-4.5-.3 0-2.8-3.9-5.4-8.6C93.8 72.9 89.2 70 81.2 73.5z"/><path d="M71.6 94.8c-1.3 4 .7 16.2 3.5 21.4 3.9 7.2 7.7 9.8 14.5 9.8 4.7 0 4.4-2.2-1.2-7.9-6-6-9-11.3-10.7-18.6-1.1-4.8-1.8-6.1-3.4-6.3-1.4-.2-2.3.4-2.7 1.6zM165.5 97.2c-1.1 7.1-5.1 14.5-11.1 20.8-6.5 6.9-6.4 8.4.8 7.8 8.5-.9 13.8-8 15.7-21 1.2-8.6.5-11.8-2.4-11.8-2 0-2.4.7-3 4.2zM226.6 70.5c-.9 3.5-1.6 6.9-1.6 7.5 0 .7 13.8 1 42.9 1h42.9l3.1 2.6c2.7 2.2 3.1 3.2 3.1 7.4 0 9-6.5 19.1-15.2 23.4l-5.2 2.6h-29.8c-25.2 0-29.8-.2-29.8-1.4 0-.8 1.1-5.7 2.5-10.8 1.4-5.1 2.5-9.7 2.5-10.1 0-.4-4.8-.6-10.7-.5l-10.6.3-4.7 18.2-4.7 18.3h99.4l6.1-3.1c18.5-9.2 29.5-37.6 20-51.5-2.9-4.3-9.7-7.9-17.2-9.3-3.7-.7-22.2-1.1-48.7-1.1h-42.7l-1.6 6.5zM387.5 64.6c-18.7 4.2-31.6 12.8-37.1 24.7-7.4 16.2-3.8 30.2 9.6 37.3 3.2 1.8 6.4 1.9 43.5 1.9h40l6.7-3.2c12.3-5.8 20-15.2 23.4-28.3 1.9-7.3 1.3-14.3-1.6-19.9-2.4-4.8-5.5-7.5-11.5-10.3-4.9-2.2-5.9-2.3-38-2.5-18.1-.1-33.9.1-35 .3zm60.3 14.7c9 4.9 7.6 22.7-2.2 30.2-7.9 6-11.1 6.5-40.6 6.5-29.6 0-32.3-.4-35.7-5.6-2.4-3.7-2.3-12.6.2-17.8 2.3-4.9 9.3-10 17-12.5 8.8-2.9 8.9-2.9 34.5-2.8 20.6.2 23.9.4 26.8 2zM488.5 65.2c-.2.7-.9 3.3-1.5 5.8s-1.3 5.3-1.6 6.2c-.5 1.7 2 1.8 42.3 1.8 40.7 0 43 .1 46 2 8.3 5 3.1 21.5-9.5 30.5l-4.4 3-31.4.3c-17.3.2-31.4-.1-31.4-.5s1.4-5.6 3-11.6l2.9-10.7H481.2l-4.1 16.2c-2.2 9-4.4 17.3-4.7 18.6l-.7 2.3 50.9-.3c47.9-.3 51.1-.4 54.4-2.2 13-7.1 24-24.5 24-38 0-11.3-4.3-18-13.8-21.8-5.6-2.2-6.5-2.3-52-2.6-37.5-.3-46.3-.1-46.7 1zM646 64.7c-7.9 1.4-19.8 6.5-25.9 11.1-8.4 6.5-14.2 18.2-14.2 28.8 0 10.1 4.1 17.1 12.6 21.7 3.9 2.2 4.9 2.2 44 2.2h40l6.8-3.2c12.4-5.9 20.4-15.7 24-29.6l1.5-5.7h-73.5l-1.1 4.7c-.6 2.7-1.4 5.8-1.8 7l-.6 2.3h46.4l-1.9 3.2c-1 1.8-3.4 4.1-5.3 5.3-3.2 1.8-5.5 2-28.6 2.3-34.9.5-39.7-.6-41.4-9.7-1.8-9.8 3.1-17.9 13.9-23l5.6-2.6 45.8-.3c44.9-.3 45.7-.3 45.7-2.3 0-3.9-2.9-8.8-6.2-10.6-3-1.6-6.7-1.8-43.3-1.9-22-.1-41.1 0-42.5.3zM759.9 64.9c-5 1.6-7.1 3.3-9 7.4-1 2.3-1.9 4.8-1.9 5.4 0 1 11.3 1.3 53.5 1.3h53.4l1.7-5.8c.8-3.1 1.8-6.5 2-7.5.5-1.6-2.2-1.7-48.3-1.6-26.8 0-50 .4-51.4.8zM745.5 91.2c-.5 1.6-4 14.5-6 22.2-1.7 6.9-.7 12.9 2.5 14.6 1.2.6 19.7 1 51.4 1h49.5l1.7-5.8c.9-3.1 1.9-6.3 2.1-7 .4-.9-8.5-1.2-42.6-1.2-29.6 0-43.1-.3-43.1-1.1 0-.5.5-3 1.1-5.5l1.1-4.4h86.4l1.7-6.4c.9-3.5 1.7-6.7 1.7-7 0-.3-24.1-.6-53.5-.6-42 0-53.7.3-54 1.2z"/></svg>