<svg xmlns="http://www.w3.org/2000/svg" width="4060" height="1637.333" version="1.0" viewBox="0 0 3045 1228"><path d="M529.7 2.7c-.4.3-.7 152.7-.7 338.5 0 368.7.4 345-5.6 365.5-14.6 50.3-54.6 82.1-113.1 89.8-15.1 1.9-39.6 1.9-52.9 0-30.7-4.6-57.9-18.4-77.7-39.5-16.7-17.7-27.6-39-33.9-66.3-2.1-8.9-2.2-11.9-2.5-79.5l-.4-70.2H2v74.3c0 73.3.5 90 3.6 112.7C23.2 859.9 96 946.2 220.8 983.4c48 14.3 98.7 20.8 163.7 20.8 77.4 0 136.8-9.8 192.5-31.9 57.6-22.8 101.3-55.5 136-101.8 34.3-45.6 55.4-102.4 63.7-170.5 1.5-12.2 1.7-46.1 2-355.8L779 2H654.7c-68.4 0-124.7.3-125 .7zM1120 277.1c-54.5 5.8-98.3 21.4-140 49.7-17.9 12.1-25.4 18.5-43.5 36.6-41.8 42-72.5 95.1-92 159.2-23.7 77.7-27.4 163.5-10.3 235.4 24.2 102.3 87.6 183.4 176 225.4 40.6 19.3 84 30.1 135.8 33.7 19.5 1.4 65.9.5 83.5-1.6 61.4-7.3 115.6-25.1 162.5-53.3 72.6-43.6 120.9-107.7 125.5-166.4l.6-7.8h-228.6l-2.9 5.5c-6.7 12.8-20.6 28.1-34.1 37.4-24.6 17.1-54.7 23.8-89.3 20-56.2-6.1-89.6-38.6-101.6-98.9-3-15.2-4.6-30.7-4.6-45.2V696h463.5v-7.2c0-15.8-1.6-52.2-3.1-68.3-10.4-116.2-42.9-200.1-99.3-256.4-49.1-49-114.4-76.5-203.1-85.7-18.1-1.8-81.9-2.8-95-1.3zm80.5 150.4c28 4.6 51.8 17.2 68.2 36.2 18.8 21.8 29 49.3 31.8 85.5l.6 7.8H1065v-9.3c0-25.1 7.1-54.1 18.1-73.2 14.7-25.9 40.6-42.7 72.4-47.4 10-1.4 35.2-1.2 45 .4zM1865.5 276.7c-113.3 10.2-201.2 73-254.5 181.8-23.4 47.9-37.9 100.6-44.2 160.5-1.7 16.5-1.7 72.8 0 87.5 8 68.4 29.4 126.9 64.3 175.7 51.5 71.9 125.3 116.2 218 130.7 25.5 4 33.9 4.5 69.4 4.6 36.7 0 46-.6 74.4-5.1 111.4-17.6 209.5-80.9 249.7-161.3 9.2-18.5 16.4-43.9 16.4-58.3V788h-227.8l-3.7 6.5c-13 23.2-36.2 42.1-62.5 50.9-29.8 9.9-69 8.4-97.9-3.8-16.3-6.9-33.8-21.3-43.2-35.6-15.7-23.9-24.8-58.2-25.2-95.2l-.2-14.3 231.5-.2 231.5-.3.3-7.7c.2-4.3-.1-18.6-.8-31.8-4-87-18.3-154.1-45.1-211.3-22.8-48.7-60-91.5-102.4-117.9-46.7-29.1-102.5-45.1-175-50.3-12.9-.9-63.8-1.1-73-.3zm83 151.8c10.4 2.3 19.1 5.3 27.9 9.7 36.5 18 58.9 53 64.6 100.8.5 4.6 1 10.6 1 13.2v4.8h-235v-12.9c0-34.7 12.2-68.7 31.7-88.5 14.8-15.1 32.5-24 55.7-28.1 10.7-1.9 44.1-1.3 54.1 1zM2720 285.1c-45.7 4.4-90.7 21.8-121.6 46.9-3.8 3.2-12.8 12-20 19.6-17.8 18.9-24.1 22.6-29.3 17-4.6-4.9-5.4-10.2-5.9-38.9l-.4-26.7H2313v924h233v-129.5c0-142.6-.4-133.7 6.1-137 6.3-3.3 14.1.5 26.9 12.9 17.1 16.6 37.6 28.3 68 38.8 32.2 11.1 65.6 16.2 105 16.2 25.4-.1 39.9-1.5 61.1-6 117-24.7 199.5-126.5 223.8-276.4 5.7-35.2 6.6-48.5 6.6-97.5 0-44.9-.8-58.6-5-86-7.3-47.1-19-85.1-37.6-121.5-29.2-57.4-72.2-100.5-127.4-127.5-32.8-16.1-63.6-25-97.9-28.4-12.4-1.2-42.8-1.2-55.6 0zm-19.9 180.5c57 9.8 90.2 45.8 102.8 111.5 8 41.7 7.6 111.9-1 159.9-13.4 75.5-46.1 117.1-99.7 126.5-11.2 1.9-37.4 1.9-51.2 0-29.8-4.3-53.5-15.5-70.1-33.2-19.8-21.2-31.1-50.5-37.6-97.3-1.4-10.4-1.7-20.5-1.8-59.5 0-32.5.4-50.2 1.3-57.5 7.1-57.7 22.4-95.8 49.1-122 15.3-15.1 31.2-23.8 51.1-28 11.6-2.5 43.5-2.7 57.1-.4z"/></svg>