<svg xmlns="http://www.w3.org/2000/svg" width="42" height="42" fill="none"><path fill="#fff" d="M42 21C42 9.402 32.598 0 21 0S0 9.402 0 21s9.402 21 21 21 21-9.402 21-21Z"/><path fill="#4285F4" fill-rule="evenodd" d="M31.277 21.239c0-.745-.067-1.46-.191-2.148h-9.89v4.061h5.652a4.83 4.83 0 0 1-2.095 3.17v2.634h3.393c1.985-1.828 3.13-4.52 3.13-7.717Z" clip-rule="evenodd"/><path fill="#34A853" fill-rule="evenodd" d="M21.196 31.5c2.835 0 5.212-.94 6.95-2.544l-3.394-2.634c-.94.63-2.143 1.002-3.556 1.002-2.734 0-5.05-1.847-5.875-4.33h-3.508v2.721a10.496 10.496 0 0 0 9.383 5.785Z" clip-rule="evenodd"/><path fill="#FBBC05" fill-rule="evenodd" d="M15.322 22.995a6.312 6.312 0 0 1-.33-1.995c0-.692.12-1.365.33-1.995v-2.72h-3.508A10.496 10.496 0 0 0 10.697 21c0 1.694.405 3.298 1.117 4.715l3.508-2.72Z" clip-rule="evenodd"/><path fill="#EA4335" fill-rule="evenodd" d="M21.196 14.676c1.542 0 2.926.53 4.014 1.57l3.012-3.011c-1.819-1.694-4.195-2.735-7.026-2.735a10.496 10.496 0 0 0-9.383 5.785l3.508 2.72c.826-2.482 3.14-4.329 5.875-4.329Z" clip-rule="evenodd"/></svg>